<svg width="38" height="39" viewBox="0 0 38 39" fill="none" xmlns="http://www.w3.org/2000/svg">
<path d="M30 24C30 27.3619 28.8706 30.6263 26.7931 33.2694C24.7156 35.9125 21.8104 37.7811 18.5437 38.5754C15.277 39.3696 11.8382 39.0434 8.7791 37.6492C5.71998 36.2549 3.21792 33.8734 1.67441 30.8868C0.130899 27.9003 -0.364573 24.4817 0.2675 21.1798C0.899574 17.8779 2.62255 14.884 5.15994 12.6786C7.69734 10.4732 10.902 9.18417 14.2598 9.01827C17.6176 8.85238 20.9337 9.81928 23.6762 11.7638L21.1046 15.3906C19.175 14.0224 16.8417 13.3421 14.4792 13.4589C12.1167 13.5756 9.86185 14.4826 8.07653 16.0343C6.29122 17.586 5.07894 19.6925 4.63421 22.0157C4.18949 24.3389 4.5381 26.7442 5.62412 28.8456C6.71013 30.947 8.47058 32.6226 10.623 33.6036C12.7754 34.5846 15.1949 34.8141 17.4934 34.2552C19.7918 33.6964 21.8359 32.3817 23.2976 30.522C24.7594 28.6623 25.554 26.3654 25.554 24H30Z" fill="#C455FF"/>
<path d="M28 0L30.2451 6.90983H37.5106L31.6327 11.1803L33.8779 18.0902L28 13.8197L22.1221 18.0902L24.3673 11.1803L18.4894 6.90983H25.7549L28 0Z" fill="#C455FF"/>
</svg>
